<?xml version="1.0" encoding="UTF-8" standalone="no"?>
<!-- Created with Inkscape (http://www.inkscape.org/) -->

<svg
   width="60mm"
   height="60mm"
   viewBox="0 0 60 60"
   version="1.1"
   id="svg1"
   xmlns:xlink="http://www.w3.org/1999/xlink"
   xmlns="http://www.w3.org/2000/svg"
   xmlns:svg="http://www.w3.org/2000/svg">
  <defs
     id="defs1" />
  <g
     id="layer1"
     transform="translate(-40,-25)"
     style="display:inline">
    <rect
       style="display:none;fill:#000000;stroke-width:0.564999;stroke-linejoin:round;stroke-miterlimit:3.9;paint-order:stroke markers fill"
       id="rect1"
       width="60"
       height="60"
       x="40"
       y="25" />
    <path
       style="color:#000000;fill:#ffffff;fill-opacity:1;fill-rule:evenodd;stroke:none;stroke-width:2.34949;stroke-dasharray:none;stroke-opacity:1"
       xlink:href="#path5"
       id="path6"
       d="m 72.900391,29.996094 c -3.190907,-0.0038 -6.435669,0.626567 -9.544922,1.992187 -10.612914,4.661322 -15.619707,17.936252 -11.517578,27.208985 3.995458,9.031607 15.663511,13.839855 25.154296,9.464843 7.804118,-3.597501 12.007724,-12.919813 7.97461,-20.841797 -3.275541,-6.433925 -11.131637,-8.96524 -18.029297,-5.623046 -3.297554,1.597797 -5.333252,4.203274 -5.875,7.050781 -0.541748,2.847507 0.427648,5.8667 2.722656,8.191406 1.547895,1.567925 3.68047,2.000356 5.611328,1.761719 1.930858,-0.238638 3.740186,-1.088883 5.046875,-2.289063 a 1.2386614,1.2386614 0 0 0 -1.113281,-2.11914 c -1.979187,0.452591 -3.147835,0.207815 -3.896484,-0.15625 -0.721162,-0.350698 -1.080603,-0.843893 -1.326172,-1.236328 -0.564189,-1.31399 -0.502477,-2.241667 -0.0918,-3.064454 0.421588,-0.844639 1.304213,-1.627066 2.515625,-2.224609 3.183771,-1.570432 6.307687,-0.264747 7.912109,2.886719 2.076302,4.078338 -0.213986,9.214043 -4.558593,11.216797 -5.574223,2.569574 -12.469737,-0.365574 -15.060547,-5.751953 -3.235332,-6.726361 0.507121,-14.893579 7.517578,-17.972657 8.560709,-3.759967 18.860004,0.709033 22.644531,8.91211 2.282955,4.948378 2.422913,10.766106 0.548828,15.640625 -1.874084,4.874519 -5.681884,8.792829 -11.453125,10.185547 -1.114118,0.268859 -3.738894,0.115407 -6.861328,-0.289063 -3.122434,-0.40447 -6.819544,-0.998187 -10.525391,-1.361328 -3.705846,-0.363141 -7.419257,-0.503778 -10.660156,0.05078 -3.240899,0.55456 -6.120793,1.860217 -7.697265,4.50586 a 1.2386614,1.2386614 0 0 0 1.541015,1.777343 c 6.035419,-2.514757 11.523274,-1.640247 17.41211,-0.277343 5.888836,1.362903 12.112721,3.246677 19.18164,2.28125 7.583195,-1.035665 13.18152,-6.680328 15.945313,-13.59961 C 99.181761,59.397125 99.218466,51.106532 95.595703,44.402344 91.049952,35.990099 82.497487,30.007555 72.900391,29.996094 Z" />
    <path
       style="color:#000000;display:inline;fill:#ffffff;fill-opacity:1;fill-rule:evenodd;stroke:none;stroke-width:2.34949;stroke-dasharray:none;stroke-opacity:1"
       d="m 72.897706,31.233552 c -3.026911,-0.0036 -6.09733,0.594835 -9.045153,1.889553 -9.934572,4.363386 -14.644754,17.066543 -10.881937,25.572273 3.695156,8.352783 14.687701,12.905385 23.503627,8.841466 C 83.697523,64.207094 87.559908,55.6433 83.86369,48.383061 80.887341,42.536818 73.833631,40.233277 67.477615,43.313022 61.458606,46.229474 60.5719,52.421874 64.665994,56.568947 67.133011,59.067888 71.427106,58 73.604595,56 69.231584,57 67.612474,55 67,54 c -1.466957,-3.270673 0.227441,-5.641245 2.982075,-7 3.752832,-1.851128 7.706391,-0.215703 9.565069,3.43518 2.427573,4.768317 -0.216763,10.63383 -5.144396,12.905344 -6.239564,2.87628 -13.810003,-0.346568 -16.692806,-6.340009 -3.563892,-7.409447 0.531631,-16.306149 8.133716,-19.645077 9.219258,-4.04921 20.199966,0.709156 24.268588,9.528019 4.856652,10.526946 0.602904,24.570516 -11.739534,27.548997 -6.150795,1.484312 -29.654961,-6.583866 -34.971041,2.3376 12.758594,-5.316081 23.390756,3.765289 36.90252,1.919939 C 94.43723,76.759792 101.33784,57.632161 94.506517,44.990302 90.153062,36.933916 81.978446,31.244397 72.897706,31.233552 Z"
       id="path5" />
  </g>
  <g
     id="layer2"
     style="display:inline">
    <path
       id="path2"
       style="display:inline;fill:#ffffff;fill-opacity:1;stroke-width:0.564999;stroke-linejoin:round;stroke-miterlimit:3.9;paint-order:stroke markers fill"
       d="m 42.513892,38.239636 -20,16.760364 5,-18.570317 M 9.1913248,8.030901 48.808675,5 c 2.046709,-0.1565822 3.705217,1.6525267 3.705217,3.7052169 V 36.569093 c 0,2.052691 -1.677257,4.022889 -3.705217,3.705217 L 9.1913248,34.068409 C 8.2563118,33.921943 7.4861079,32.744191 7.4861079,31.09931 V 11 c 0,-1.6448809 0.7615589,-2.896905 1.7052169,-2.969099 z" />
  </g>
  <g
     id="layer3"
     style="display:inline">
    <path
       id="rect4"
       style="fill:#ffffff;fill-opacity:1;stroke-width:0.564999;stroke-linejoin:round;stroke-miterlimit:3.9;paint-order:stroke markers fill"
       d="M 23.295833,9.7625 35.645833,5 c 1.033796,-0.3986602 2.1252,0.8990963 2,2 L 34,39.058333 c -0.126427,1.111695 -0.727076,2.192468 -1.6,2 L 27.6,40 C 26.727076,39.807532 26.237677,39.325647 26,38 L 21.295833,11.7625 c -0.195537,-1.090609 0.966204,-1.60134 2,-2 z M 35.090385,50.090385 A 5.0903854,5.0903854 0 0 1 30,55.180771 5.0903854,5.0903854 0 0 1 24.909615,50.090385 5.0903854,5.0903854 0 0 1 30,45 a 5.0903854,5.0903854 0 0 1 5.090385,5.090385 z" />
  </g>
  <g
     id="layer4"
     style="display:inline">
    <path
       id="path4"
       style="fill:#ffffff;fill-opacity:1;stroke-width:0.489919;stroke-linejoin:round;stroke-miterlimit:3.9;paint-order:stroke markers fill"
       d="M 51.876061,4.7600104 A 8.2295471,41.10428 48.100694 0 0 36.504393,12.214439 7.1509145,42.885579 45.503599 0 1 45.561728,10.101957 7.1509145,42.885579 45.503599 0 1 30.819504,32.947405 17.157496,17.529069 0 0 0 33.942538,34.492796 8.2295471,41.10428 48.100694 0 0 54.147114,5.3647286 8.2295471,41.10428 48.100694 0 0 51.876061,4.7600104 Z M 33.942538,34.492796 a 8.2295471,41.10428 48.100694 0 1 -4.556618,4.247541 8.2295471,41.10428 48.100694 0 1 -14.26275,11.665954 21.848707,22.321876 0 0 0 11.720783,3.492315 21.848707,22.321876 0 0 0 21.749429,-20.913037 17.157496,17.529069 0 0 1 -8.881564,2.56293 17.157496,17.529069 0 0 1 -5.76928,-1.055703 z M 15.12317,50.406291 A 21.848707,22.321876 0 0 1 14.280328,49.781147 7.1509145,42.885579 45.503599 0 1 8.4503059,55 8.2295471,41.10428 48.100694 0 0 15.12317,50.406291 Z m -0.842842,-0.625144 a 7.1509145,42.885579 45.503599 0 0 2.53444,-2.37372 A 7.1509145,42.885579 45.503599 0 0 30.819504,32.947405 17.157496,17.529069 0 0 1 22.554485,18.019734 17.157496,17.529069 0 0 1 24.81855,9.4031707 21.848707,22.321876 0 0 0 4.9950804,31.577247 a 21.848707,22.321876 0 0 0 9.2852476,18.2039 z" />
  </g>
</svg>
